<svg xmlns="http://www.w3.org/2000/svg" viewBox="0 0 600 360" width="600" height="360">
  <defs>
    <linearGradient id="bgDes" x1="0%" y1="0%" x2="100%" y2="100%">
      <stop offset="0%" stop-color="#2A1B4D"/>
      <stop offset="55%" stop-color="#3B2568"/>
      <stop offset="100%" stop-color="#4D3182"/>
    </linearGradient>
    <radialGradient id="glowDes" cx="15%" cy="85%" r="55%">
      <stop offset="0%" stop-color="#8B5FBF" stop-opacity="0.45"/>
      <stop offset="100%" stop-color="#8B5FBF" stop-opacity="0"/>
    </radialGradient>
  </defs>
  <rect width="600" height="360" fill="url(#bgDes)"/>
  <rect width="600" height="360" fill="url(#glowDes)"/>
  <circle cx="80" cy="70" r="3" fill="#F2A93B" opacity="0.6"/>
  <circle cx="530" cy="300" r="2.5" fill="#EDE8F7" opacity="0.5"/>
  <!-- طبقات تصميم متراكبة -->
  <g transform="translate(190,70)">
    <rect x="30" y="30" width="150" height="150" rx="20" fill="#8B5FBF" opacity="0.28" transform="rotate(-8 105 105)"/>
    <rect x="10" y="10" width="150" height="150" rx="20" fill="#F2A93B" opacity="0.22" transform="rotate(6 85 85)"/>
    <rect x="20" y="20" width="150" height="150" rx="20" fill="#EDE8F7" opacity="0.08"/>
    <!-- قلم تصميم -->
    <g transform="translate(60,45)">
      <path d="M40 5 L75 40 L35 80 L5 90 L15 60 Z" fill="#EDE8F7" opacity="0.92"/>
      <path d="M40 5 L60 25 L48 37 L28 17 Z" fill="#F2A93B"/>
      <circle cx="16" cy="74" r="7" fill="#8B5FBF"/>
    </g>
  </g>
  <!-- عينات ألوان -->
  <circle cx="175" cy="290" r="16" fill="#F2A93B"/>
  <circle cx="215" cy="290" r="16" fill="#8B5FBF"/>
  <circle cx="255" cy="290" r="16" fill="#EDE8F7" opacity="0.85"/>
  <circle cx="295" cy="290" r="16" fill="#6B3FA0"/>
</svg>
